<?xml version="1.0" standalone="no"?>
<!DOCTYPE svg PUBLIC "-//W3C//DTD SVG 20010904//EN"
 "http://www.w3.org/TR/2001/REC-SVG-20010904/DTD/svg10.dtd">
<svg version="1.0" xmlns="http://www.w3.org/2000/svg"
 width="300.000000pt" height="458.000000pt" viewBox="0 0 300.000000 458.000000"
 preserveAspectRatio="xMidYMid meet">
<metadata>
Created by potrace 1.10, written by Peter Selinger 2001-2011
</metadata>
<g transform="translate(0.000000,458.000000) scale(0.100000,-0.100000)"
fill="#000000" stroke="none">
<path d="M1380 4481 c-5 -11 -10 -39 -10 -63 0 -24 -4 -49 -9 -57 -9 -14 -136
-71 -158 -71 -8 0 -33 18 -57 40 -24 22 -52 40 -62 40 -23 0 -114 -89 -114
-111 0 -8 18 -34 40 -58 22 -23 40 -48 40 -55 0 -12 -49 -132 -63 -153 -5 -7
-17 -13 -27 -13 -17 0 -18 -3 -8 -25 12 -27 28 -33 28 -11 0 8 7 21 15 29 21
22 66 128 67 160 1 15 6 31 11 34 6 4 4 9 -6 12 -15 5 -14 10 8 36 24 29 25
29 40 11 21 -28 30 -85 17 -115 -6 -14 -22 -55 -37 -91 -14 -36 -29 -72 -34
-79 -12 -23 -53 -49 -88 -56 l-32 -6 -3 48 c-3 45 -5 48 -32 51 -16 2 -33 -1
-39 -7 -22 -22 -26 -9 -29 83 l-3 93 -59 -18 c-132 -42 -218 -123 -264 -249
-4 -8 -7 -605 -9 -1327 -3 -1430 -5 -1391 53 -1348 18 13 18 14 -6 9 -24 -5
-24 -5 -6 10 20 16 19 16 -1 16 l-21 0 4 1316 c4 1132 6 1321 19 1351 8 20 15
37 15 39 0 2 20 25 44 51 40 42 46 45 62 32 16 -13 17 -12 10 15 -6 23 -4 27
8 23 9 -4 16 1 18 10 3 15 5 15 21 -2 18 -17 18 -17 15 1 -2 13 2 19 15 18 9
-1 17 4 17 12 0 8 9 14 21 14 20 0 20 -1 2 -30 -21 -37 -57 -74 -109 -116 -22
-17 -50 -53 -64 -80 l-25 -49 0 -1300 c0 -1226 1 -1302 18 -1336 10 -20 32
-49 49 -65 l31 -29 -26 41 c-14 23 -30 59 -35 80 -6 24 -10 535 -11 1303 -1
1144 0 1269 15 1313 12 37 34 66 87 118 39 38 74 67 78 65 16 -11 -6 -52 -42
-79 -46 -35 -86 -89 -99 -137 -12 -42 -17 -2198 -6 -2249 16 -68 84 -148 159
-186 17 -9 35 -22 39 -28 5 -7 8 -4 8 7 0 30 25 13 29 -19 4 -29 4 -29 10 -4
l7 25 544 0 c300 0 553 -4 563 -8 12 -5 17 -3 17 8 0 23 17 18 25 -7 8 -22 8
-22 12 4 5 31 29 44 50 26 11 -9 13 -8 11 3 -2 9 4 13 15 11 9 -2 17 2 17 7 0
20 -22 22 -63 6 -37 -14 -111 -15 -648 -13 l-606 3 -49 30 c-30 19 -60 49 -79
79 l-30 49 -3 1106 c-2 1009 -1 1110 14 1151 29 78 118 155 150 129 8 -6 14
-8 14 -3 0 4 14 -5 30 -21 17 -16 30 -33 30 -37 0 -12 -52 -57 -66 -58 -7 0
-9 17 -6 49 2 30 0 51 -7 55 -8 5 -11 -11 -11 -53 0 -76 14 -91 84 -91 63 0
74 -10 104 -96 28 -79 28 -90 -8 -126 -29 -28 -50 -59 -50 -73 0 -3 21 -28 46
-55 52 -56 76 -61 113 -26 60 55 69 57 143 27 91 -37 98 -44 98 -103 0 -80 8
-88 95 -88 85 0 94 8 93 77 0 22 4 49 10 59 15 27 142 76 179 68 27 -5 30 -3
40 31 10 32 10 35 -4 24 -8 -7 -34 -13 -57 -14 -26 0 -68 -13 -109 -33 -71
-35 -94 -63 -101 -124 -2 -18 -4 -36 -5 -40 0 -5 -7 -8 -14 -8 -9 0 -13 18
-13 63 0 34 -4 72 -8 85 -8 20 -5 22 25 22 42 0 189 40 189 51 0 5 5 9 11 9
25 0 101 75 131 127 34 59 46 66 24 11 -18 -43 -12 -72 26 -121 30 -39 31 -70
3 -81 -10 -4 -20 6 -29 29 -8 19 -21 35 -28 35 -10 0 -10 -2 -1 -8 21 -13 26
-58 8 -76 -24 -24 -36 -20 -25 10 8 19 7 23 -3 18 -37 -22 -38 -27 -11 -56 39
-40 62 -35 118 21 55 56 55 66 1 124 -19 21 -35 44 -35 52 0 7 11 36 25 63 14
28 25 57 25 65 0 28 40 47 82 41 26 -5 45 -2 63 10 22 15 25 23 25 77 0 86
-10 99 -71 99 -67 0 -83 10 -104 67 -10 26 -22 52 -26 58 -21 22 -9 68 31 111
46 50 45 60 -13 122 -51 52 -77 54 -121 7 -34 -36 -70 -45 -104 -25 -22 13
-77 32 -78 28 -1 -2 -11 6 -23 16 -16 14 -21 31 -21 68 0 80 -8 88 -95 88 -63
0 -76 -3 -85 -19z m54 -30 c25 -27 28 -35 23 -77 -7 -69 -32 -95 -123 -128
-161 -58 -152 -53 -124 -61 16 -4 50 3 93 19 37 14 70 26 75 26 4 1 22 10 39
20 41 24 71 72 79 127 7 47 24 59 24 17 0 -42 38 -84 102 -111 47 -21 58 -30
55 -44 -3 -10 1 -23 9 -30 11 -9 14 -6 14 20 0 34 14 41 25 14 5 -15 9 -12 21
16 12 30 16 32 31 20 11 -9 14 -10 9 -2 -8 14 37 66 48 56 3 -4 6 -25 6 -47 0
-35 -5 -44 -33 -63 -18 -13 -48 -23 -65 -23 -39 0 -40 -5 -3 -35 49 -42 121
-214 121 -290 0 -82 -64 -227 -127 -286 -60 -58 -186 -109 -268 -109 l-51 0 4
34 4 34 34 -14 c27 -11 34 -12 35 -2 1 7 5 2 9 -12 8 -24 8 -23 9 7 1 30 3 32
26 23 17 -6 25 -6 25 1 0 6 5 7 10 4 6 -3 10 -1 10 6 0 8 5 7 17 -2 15 -12 16
-12 11 8 -5 20 -3 22 20 16 21 -5 24 -3 19 10 -8 22 10 32 30 15 14 -11 15
-10 9 9 -5 16 -2 23 11 27 19 6 79 121 87 166 2 14 5 27 6 30 1 3 3 26 3 52 2
35 -2 48 -12 48 -10 0 -11 3 -2 13 8 10 7 19 -3 33 -10 13 -11 24 -5 36 8 15
6 18 -11 18 -12 0 -18 5 -15 10 3 6 1 10 -6 10 -9 0 -9 3 0 14 10 12 8 13 -10
9 -16 -4 -20 -3 -15 6 9 14 -12 43 -25 35 -12 -7 -11 3 2 29 12 22 12 22 -10
3 -27 -25 -36 -15 -23 23 13 37 7 39 -25 9 -17 -16 -23 -18 -23 -7 0 18 -91
39 -168 39 -49 0 -135 -27 -169 -53 -9 -6 -40 -36 -69 -66 l-53 -54 10 39 c14
50 6 110 -21 146 -12 16 -20 36 -18 44 5 25 48 -12 48 -42 0 -13 5 -24 10 -24
6 0 10 15 10 33 1 30 2 31 15 13 13 -18 14 -17 21 8 5 21 9 24 20 15 11 -9 14
-8 14 1 0 9 4 9 17 -1 15 -12 16 -12 10 4 -5 14 -2 16 18 13 14 -3 25 0 25 6
0 6 6 6 15 -2 12 -10 15 -10 17 1 5 45 17 79 29 79 5 0 7 22 5 50 -3 28 -1 50
3 50 4 0 20 -13 35 -29z m55 -12 c-24 -14 -36 11 -14 27 18 13 20 13 23 -2 2
-9 -2 -20 -9 -25z m-409 -147 c0 -39 -5 -53 -25 -72 -31 -29 -33 -15 -3 17
l21 23 -42 0 -42 0 33 40 c45 53 58 52 58 -8z m811 -66 c-54 -84 -55 -87 -41
-141 16 -65 42 -114 74 -144 14 -14 26 -33 26 -43 0 -11 5 -16 10 -13 6 3 10
18 10 33 0 19 3 23 9 13 5 -8 11 -9 15 -3 7 12 39 9 43 -5 2 -5 -6 -18 -17
-28 -25 -23 -26 -39 -1 -25 28 14 31 13 31 -14 0 -30 -10 -37 -53 -38 -40 -1
-81 -21 -101 -50 -21 -29 -28 -19 -16 23 13 45 13 124 -1 174 -10 37 -60 133
-95 181 -14 21 -13 23 23 41 24 12 45 33 57 57 15 30 21 35 32 25 12 -10 11
-16 -5 -43z m-303 -73 c60 -31 129 -101 157 -160 28 -58 26 -185 -3 -241 -77
-147 -239 -217 -383 -166 -71 25 -150 99 -179 166 -33 74 -33 174 -1 245 34
76 114 147 201 176 8 3 46 6 84 6 56 1 79 -4 124 -26z m-469 -268 c0 -47 4
-97 7 -113 18 -73 105 -167 197 -214 41 -20 57 -34 53 -44 -3 -8 -1 -14 4 -14
5 0 11 12 13 28 3 21 4 18 6 -12 0 -25 9 -48 22 -63 14 -14 24 -40 26 -70 4
-43 2 -51 -25 -77 l-31 -29 -9 34 c-7 27 -6 37 6 47 14 11 14 12 1 12 -16 0
-19 26 -5 48 5 8 0 12 -13 12 -24 0 -24 0 -11 34 11 30 3 34 -15 9 -11 -14
-16 -15 -43 -4 -18 7 -38 11 -46 8 -11 -4 -13 -1 -9 10 5 14 -1 15 -45 11 -30
-3 -61 -13 -72 -23 -34 -30 -34 -9 -1 41 45 69 45 101 -1 219 -18 45 -45 92
-61 108 l-29 27 36 40 c20 22 36 45 36 50 0 6 2 10 4 10 3 0 5 -38 5 -85z
m-82 -32 c11 -10 28 -43 38 -73 10 -30 26 -72 36 -92 31 -62 20 -140 -25 -177
-9 -8 -16 -29 -16 -47 0 -37 -13 -44 -29 -17 -7 13 -5 23 6 35 15 17 13 18
-28 18 l-44 1 36 32 c22 20 39 45 44 67 4 19 12 41 18 48 8 11 6 18 -11 31
-18 13 -20 19 -10 29 9 9 7 12 -10 12 -24 0 -30 15 -9 23 7 4 6 6 -5 6 -21 1
-27 20 -17 47 10 29 0 38 -17 16 -12 -15 -13 -15 -8 4 5 19 2 21 -21 16 -21
-4 -26 -1 -23 9 3 8 17 14 31 14 14 1 29 4 33 8 9 9 8 10 31 -10z"/>
<path d="M1695 3324 c-33 -14 -68 -27 -78 -30 -29 -10 -32 -53 -8 -121 13 -35
20 -74 17 -86 -8 -32 -159 -177 -184 -177 -11 0 -49 12 -83 27 -84 36 -103 26
-145 -82 -43 -108 -38 -117 84 -165 18 -7 38 -22 44 -34 16 -28 11 -224 -6
-250 -6 -10 -36 -28 -65 -40 -30 -12 -63 -34 -74 -48 l-20 -27 28 -76 c39
-107 74 -126 164 -85 24 11 54 20 67 20 29 0 173 -142 180 -179 3 -15 -5 -51
-19 -86 -36 -85 -24 -109 68 -147 110 -44 125 -39 164 47 40 88 53 94 183 86
121 -7 126 -10 156 -86 11 -27 31 -59 46 -69 29 -22 40 -20 154 30 50 22 52
25 52 61 0 21 -9 58 -20 82 -11 24 -20 53 -20 65 0 25 160 186 184 186 8 0 47
-12 86 -26 71 -27 72 -27 97 -8 46 35 88 165 65 201 -4 7 -30 22 -57 34 -91
39 -95 46 -95 174 0 129 3 135 102 178 74 33 80 53 43 144 -43 110 -63 120
-150 83 -53 -23 -93 -25 -115 -7 -8 7 -46 45 -84 85 -76 80 -75 77 -34 179 30
73 18 95 -68 133 -65 30 -108 37 -130 22 -7 -4 -26 -36 -43 -71 -17 -35 -38
-69 -47 -75 -24 -18 -218 -12 -248 7 -13 9 -33 41 -45 76 -32 83 -55 92 -146
55z m65 -21 c0 -39 -13 -62 -37 -68 -30 -7 -39 0 -48 38 -6 22 -4 26 9 21 9
-3 13 -11 9 -17 -3 -6 -1 -7 5 -3 7 4 12 14 12 22 0 8 5 12 10 9 6 -3 10 -1
10 4 0 6 7 11 15 11 8 0 15 -8 15 -17z m504 -40 c6 -23 1 -44 -18 -81 -33 -65
-75 -94 -141 -100 l-51 -4 4 38 c3 22 7 33 9 26 3 -6 9 -10 14 -6 5 3 12 -2
15 -11 6 -14 8 -14 19 2 7 9 11 23 8 30 -6 16 9 17 25 1 9 -9 12 -7 12 10 0
12 3 22 8 22 6 0 28 49 46 103 3 10 10 15 16 12 5 -3 10 0 10 7 1 20 17 -11
24 -49z m-598 -11 c53 -68 67 -172 32 -236 -7 -12 -52 -59 -100 -104 -70 -66
-95 -83 -127 -88 -50 -8 -54 -24 -6 -24 51 0 90 23 173 104 94 91 116 131 109
205 -2 31 -7 63 -11 71 -6 14 40 80 56 80 3 0 18 -20 32 -45 15 -24 36 -50 47
-56 11 -6 26 -24 33 -40 l12 -29 13 35 c13 38 25 44 35 20 4 -12 10 -14 25 -5
37 19 51 13 51 -26 0 -35 -1 -36 -30 -30 -37 7 -98 -4 -79 -14 8 -4 37 -4 64
-1 28 4 67 3 87 -2 21 -5 53 -6 71 -3 67 13 147 113 147 184 0 32 2 34 28 27
15 -3 37 -16 49 -27 l22 -20 -20 -50 c-24 -63 -27 -110 -7 -140 8 -13 52 -60
97 -105 44 -46 81 -89 81 -98 0 -8 5 -15 10 -15 6 0 10 11 10 25 0 29 15 33
28 8 8 -13 11 -11 17 16 5 25 10 30 20 21 9 -8 17 -7 26 3 8 7 25 16 38 20 22
5 23 4 18 -30 -7 -41 -15 -48 -72 -64 -66 -19 -72 -23 -36 -27 50 -5 81 5 112
39 l28 31 23 -46 c21 -44 21 -46 4 -65 -10 -11 -33 -25 -52 -31 -18 -6 -49
-29 -68 -51 l-36 -39 0 -115 c0 -111 1 -116 28 -145 15 -17 50 -43 77 -58 61
-33 65 -52 30 -121 -29 -58 -35 -60 -119 -31 -47 17 -64 19 -91 10 -43 -14
-195 -170 -196 -201 -2 -43 2 -70 17 -105 20 -47 10 -71 -33 -89 -50 -21 -53
-20 -53 20 0 46 -21 94 -54 124 -35 33 -41 22 -11 -19 39 -54 50 -96 31 -125
-18 -27 -52 -35 -42 -10 3 8 0 15 -6 15 -7 0 -6 5 2 15 10 12 9 15 -4 15 -10
0 -15 4 -11 9 3 6 -2 14 -12 19 -15 9 -15 12 -3 28 14 16 13 17 -8 11 -16 -4
-22 -2 -19 6 2 7 7 23 11 37 6 23 6 23 -7 8 -12 -15 -32 -18 -140 -18 -121 0
-127 -1 -157 -26 -17 -15 -42 -49 -56 -76 -14 -27 -30 -51 -37 -54 -7 -2 -30
2 -51 11 -37 16 -37 17 -22 38 53 72 69 156 43 220 -14 32 -176 201 -185 193
-7 -8 46 -71 89 -106 54 -43 83 -108 76 -170 -8 -64 -25 -97 -63 -119 -27 -16
-35 -17 -44 -6 -8 10 -6 23 9 54 12 22 21 47 21 56 0 8 4 15 9 15 6 0 6 13 -1
33 -13 41 -13 46 -4 81 7 29 7 29 -18 13 -22 -15 -25 -15 -32 1 -4 9 -6 21 -5
26 1 5 -5 6 -14 3 -10 -4 -15 0 -15 12 0 15 -5 18 -22 13 -17 -4 -20 -2 -15
11 4 11 1 17 -8 17 -18 0 -18 1 -4 37 8 23 8 26 -2 16 -7 -7 -30 -13 -51 -13
-21 0 -56 -7 -78 -16 -23 -9 -42 -15 -45 -13 -2 2 -1 25 2 50 4 35 11 49 27
57 36 16 86 62 102 95 19 37 28 242 12 301 -9 36 -58 96 -79 96 -5 0 6 -21 24
-46 31 -44 32 -48 32 -152 1 -177 -20 -227 -111 -269 l-54 -24 14 -28 c13 -25
13 -31 -5 -60 -17 -27 -22 -31 -35 -20 -8 7 -13 18 -10 25 3 7 0 15 -7 18 -9
3 -8 8 3 15 13 9 12 11 -4 11 -19 0 -19 1 -1 20 18 20 18 21 0 14 -13 -5 -16
-4 -11 4 4 7 1 12 -8 12 -21 0 -20 14 0 31 14 11 18 11 29 -4 17 -24 24 -21
17 6 -5 19 -3 20 10 9 14 -11 16 -10 11 10 -5 18 -3 21 7 11 10 -9 16 -9 26 2
8 7 14 18 14 24 0 6 5 11 10 11 11 0 31 43 33 73 1 9 8 17 17 17 13 1 13 2 -1
13 -12 9 -15 30 -14 92 0 44 5 86 9 94 7 10 3 11 -14 6 -15 -5 -20 -4 -16 4 4
6 3 11 -3 11 -7 0 -7 8 -1 26 13 34 13 39 -5 24 -8 -7 -25 -10 -40 -6 l-25 6
30 42 c19 26 30 53 30 75 0 22 5 33 14 33 19 0 46 -27 46 -46 0 -8 5 -14 10
-14 6 0 10 14 10 32 0 30 1 31 15 12 13 -17 14 -17 15 -1 0 20 11 22 29 5 9
-8 12 -9 7 -1 -10 19 2 38 39 57 19 10 32 23 28 29 -9 15 20 27 36 14 12 -10
13 -8 6 12 -6 19 -4 23 8 18 11 -4 19 6 28 39 7 24 16 44 20 44 4 0 5 9 2 20
-4 13 1 27 13 36 18 15 18 15 -4 10 -18 -3 -22 -1 -18 10 3 8 0 14 -6 14 -7 0
-6 5 2 15 10 12 9 15 -4 15 -10 0 -14 5 -11 10 3 6 1 10 -4 10 -6 0 -11 7 -11
15 0 8 7 15 16 15 8 0 12 5 9 10 -13 22 11 7 31 -18z m-362 -374 c8 -49 -8
-82 -51 -102 -20 -9 -37 -16 -38 -14 -10 10 -5 39 13 78 12 25 22 53 22 62 0
13 7 17 24 16 20 -2 25 -9 30 -40z"/>
<path d="M1955 2982 c-181 -19 -351 -168 -394 -347 -15 -62 -16 -171 -1 -227
20 -73 70 -155 129 -212 62 -58 170 -119 195 -110 11 4 16 0 16 -10 0 -9 5
-16 10 -16 6 0 11 -8 11 -17 1 -10 4 -5 8 11 10 47 31 45 31 -3 0 -22 6 -43
13 -48 6 -4 44 -7 82 -7 435 10 657 555 356 877 -60 64 -99 85 -48 26 90 -105
129 -180 148 -286 13 -66 5 -175 -16 -246 -35 -115 -146 -244 -257 -300 -60
-30 -169 -57 -230 -57 -37 0 -37 1 -31 33 8 42 8 42 31 19 20 -20 20 -20 26 4
7 28 26 23 26 -7 0 -25 18 -25 22 1 2 12 7 20 12 20 5 -1 12 4 16 10 6 9 13 9
31 0 13 -7 21 -9 17 -5 -10 10 22 34 45 35 9 0 25 9 34 19 9 11 20 18 25 15 4
-3 8 2 8 12 0 14 3 14 15 4 13 -11 14 -10 9 4 -4 11 3 23 20 37 14 11 26 27
26 35 0 8 5 14 10 14 6 0 10 7 10 15 0 8 5 15 11 15 5 0 8 4 5 9 -3 4 4 19 15
32 25 28 54 89 50 107 -1 6 3 12 10 12 8 0 9 3 0 13 -6 8 -8 17 -4 21 9 8 10
106 2 106 -4 0 -7 10 -8 23 -2 60 -6 77 -19 77 -7 0 -10 5 -7 10 4 6 -1 23
-11 38 -10 15 -17 30 -16 35 1 4 -3 7 -10 7 -9 0 -9 3 0 12 19 19 14 30 -9 17
-19 -10 -20 -8 -14 10 5 15 2 21 -9 21 -9 0 -16 5 -16 11 0 6 -7 8 -16 5 -14
-5 -16 -1 -11 23 6 28 5 30 -16 22 -25 -10 -53 11 -41 31 4 6 3 8 -4 4 -6 -3
-34 3 -62 14 -53 21 -171 38 -225 32z m150 -48 c17 -3 35 -10 40 -14 6 -4 27
-13 49 -20 54 -17 160 -124 191 -192 33 -72 48 -159 40 -228 -8 -64 -25 -130
-35 -130 -4 0 -26 18 -50 41 -38 36 -41 43 -32 64 18 39 9 174 -15 227 -26 56
-89 119 -149 149 -82 39 -214 35 -231 -7 -9 -24 186 -217 204 -202 18 15 16
27 -4 35 -10 4 -25 15 -34 25 -9 10 -20 14 -24 10 -4 -4 -6 3 -3 15 5 16 2 20
-10 16 -11 -5 -14 -2 -9 11 4 10 2 16 -6 15 -26 -4 -48 13 -41 34 5 15 3 19
-9 14 -21 -8 -30 18 -11 33 11 10 14 9 14 -6 0 -11 3 -15 8 -9 4 6 14 10 22
10 8 -1 21 3 28 8 9 7 12 2 12 -19 0 -22 9 -34 35 -52 19 -12 35 -18 35 -13 0
5 -11 16 -25 25 -30 20 -32 36 -5 36 33 0 111 -57 146 -106 59 -83 73 -254 20
-254 -9 0 -13 21 -12 78 1 77 -17 136 -51 170 -19 20 -16 9 13 -45 24 -44 25
-54 19 -123 -12 -132 -10 -150 15 -135 9 6 9 10 -1 16 -11 6 -11 11 -2 20 14
14 47 4 38 -11 -3 -5 0 -7 7 -5 8 3 21 -9 31 -28 10 -19 29 -38 43 -43 l24 -9
-29 -46 c-61 -97 -184 -171 -301 -182 -332 -31 -564 304 -419 608 50 105 190
209 298 222 25 3 47 7 49 8 5 4 91 -3 127 -11z"/>
<path d="M1720 2640 c-13 -8 -13 -10 1 -10 11 0 24 -20 38 -58 28 -75 46 -101
103 -151 32 -28 49 -38 54 -30 4 8 3 9 -4 5 -7 -4 -17 3 -23 18 -7 14 -15 23
-20 21 -4 -3 -21 17 -38 45 -18 29 -26 52 -20 55 11 7 109 -87 109 -104 0 -6
7 -8 15 -5 8 4 15 11 15 18 0 14 -191 206 -205 206 -6 0 -17 -5 -25 -10z"/>
<path d="M2197 2597 c-14 -53 -68 -152 -95 -175 l-27 -23 33 16 c18 9 42 30
52 48 26 42 52 122 48 144 -3 13 -6 10 -11 -10z"/>
<path d="M1703 2539 c7 -67 8 -74 33 -129 24 -53 89 -115 149 -141 91 -40 245
-33 245 11 0 23 -25 27 -37 5 -5 -8 -28 -17 -52 -20 -24 -3 -48 -8 -52 -11 -5
-3 -10 5 -10 18 -1 17 -3 18 -6 6 -5 -20 -23 -25 -23 -7 0 8 -5 8 -15 -1 -11
-9 -15 -9 -15 -1 0 7 -4 10 -9 6 -5 -3 -12 -1 -16 5 -4 6 -10 8 -15 5 -4 -3
-34 20 -66 50 -31 30 -53 55 -49 55 4 0 0 8 -9 19 -9 10 -19 30 -22 45 -2 14
-8 36 -13 48 -5 13 -7 35 -5 50 1 15 -2 31 -8 34 -7 4 -9 -11 -5 -47z"/>
<path d="M2005 2482 c-25 -12 -35 -21 -27 -26 7 -4 12 -2 12 4 0 6 4 9 9 5 11
-6 61 15 61 27 0 12 -10 10 -55 -10z"/>
<path d="M2073 2337 c-24 -5 -43 -13 -43 -18 0 -4 13 -4 30 1 16 5 38 6 50 3
14 -4 20 -1 20 11 0 9 -3 15 -7 15 -5 -1 -27 -6 -50 -12z"/>
<path d="M2240 1580 c0 -31 -36 -95 -67 -120 -21 -17 -24 -23 -13 -30 9 -6 19
-1 30 13 27 35 60 100 60 120 0 25 30 8 52 -30 16 -28 16 -31 -4 -64 -11 -19
-34 -49 -51 -68 -33 -35 -137 -90 -172 -92 -11 0 -29 -5 -40 -10 -14 -6 -3 -8
35 -3 103 10 202 71 239 147 12 23 21 38 21 32 1 -5 8 2 16 18 34 63 45 26 41
-143 -2 -107 -6 -132 -26 -173 -33 -67 -86 -120 -160 -158 l-65 -34 -254 -3
c-270 -4 -306 0 -260 24 62 32 89 160 51 239 -14 29 -15 38 -4 44 9 6 1 10
-23 13 -36 4 -49 -7 -22 -18 20 -8 46 -77 45 -122 -2 -154 -78 -178 -564 -175
-321 1 -345 2 -345 15 0 4 -7 8 -15 8 -8 0 -15 7 -15 16 0 13 -3 14 -14 5 -11
-9 -15 -8 -20 5 -3 9 -12 14 -20 11 -10 -4 -12 0 -8 16 5 19 4 20 -11 8 -14
-11 -18 -10 -28 13 -7 14 -19 26 -27 26 -12 0 -12 2 -1 16 12 15 11 16 -10 9
-17 -5 -22 -4 -19 6 5 15 -14 39 -31 39 -17 0 -13 -12 18 -61 34 -55 87 -100
161 -136 l55 -28 690 0 690 0 56 28 c68 33 146 109 179 174 24 45 25 59 28
246 l3 197 -90 0 c-85 0 -91 -1 -91 -20z m110 -24 c0 -33 -14 -55 -27 -42 -9
8 7 76 17 76 6 0 10 -15 10 -34z"/>
<path d="M1371 1320 c-25 -5 -49 -14 -55 -20 -12 -12 -9 -12 31 -1 50 15 146
17 151 3 2 -7 -8 -9 -32 -5 -68 11 -156 -66 -156 -137 0 -41 30 -85 79 -116
42 -27 51 -29 67 -17 10 7 24 11 31 9 7 -3 13 -1 13 4 0 5 9 7 19 5 15 -3 18
1 14 12 -4 10 -2 14 5 10 18 -12 56 52 56 95 1 23 7 43 16 49 11 8 9 9 -8 4
-21 -6 -23 -4 -17 14 5 17 2 21 -14 21 -14 0 -21 6 -21 20 0 13 -7 20 -20 20
-11 0 -20 5 -20 10 0 13 6 13 30 0 19 -10 39 3 21 14 -18 11 -146 15 -190 6z
m175 -94 c56 -56 39 -130 -36 -160 -98 -39 -200 48 -156 132 23 45 54 62 109
62 42 0 54 -5 83 -34z"/>
<path d="M1700 869 c-25 -5 -55 -12 -67 -15 -44 -9 -25 -27 22 -22 25 3 45 4
45 1 0 -5 -67 -336 -75 -370 -3 -13 -12 -23 -21 -23 -10 0 -13 6 -10 18 13 40
66 308 65 327 -1 19 -78 -327 -79 -353 0 -19 36 -28 87 -22 47 5 73 27 31 26
-20 -1 -23 3 -21 37 2 37 68 363 79 392 7 17 7 17 -56 4z"/>
<path d="M1970 869 c-25 -5 -55 -12 -67 -15 -13 -2 -23 -9 -23 -14 0 -13 41
-13 73 -1 l24 10 -13 -47 c-7 -26 -27 -118 -45 -204 -24 -117 -36 -158 -47
-158 -11 0 -12 7 -7 27 14 57 65 317 64 327 -2 16 -35 -123 -60 -253 -20 -103
-21 -115 -7 -125 19 -14 120 -6 116 9 -2 6 -7 9 -12 7 -11 -4 -37 18 -32 27 3
4 21 88 41 186 20 99 40 192 45 208 5 15 6 27 2 26 -4 -1 -27 -5 -52 -10z"/>
<path d="M2206 847 c-12 -9 -17 -23 -14 -42 3 -27 7 -30 38 -30 31 0 35 3 38
30 3 26 -17 55 -38 55 -3 0 -14 -6 -24 -13z"/>
<path d="M145 836 c-17 -7 -43 -28 -58 -45 -54 -65 -28 -140 69 -197 24 -14
53 -37 64 -51 19 -25 20 -25 20 -4 0 12 -7 33 -16 46 -21 31 -5 32 24 2 27
-29 29 -86 5 -116 -21 -25 -57 -35 -128 -35 l-50 -1 -3 53 c-4 70 -26 65 -30
-6 -2 -37 -7 -52 -18 -52 -7 0 -14 -4 -14 -9 0 -5 25 -13 56 -17 150 -18 254
37 254 137 0 47 -26 79 -99 123 -68 42 -89 77 -66 112 22 34 48 45 109 43 l54
-2 -9 -31 c-22 -76 4 -75 30 1 17 51 17 52 -3 57 -39 11 -161 5 -191 -8z m-27
-51 c-23 -40 -20 -86 9 -117 22 -25 2 -23 -25 2 -32 30 -30 93 3 125 34 35 38
31 13 -10z"/>
<path d="M1000 771 c-15 -4 -20 -10 -13 -14 8 -5 4 -29 -13 -83 -14 -42 -30
-108 -36 -148 -6 -39 -15 -75 -19 -80 -19 -21 -20 30 -4 105 9 44 15 83 12 85
-7 8 -37 -134 -37 -176 0 -33 4 -39 31 -51 26 -10 41 -10 87 2 70 18 84 42 19
33 -59 -8 -63 6 -37 123 l22 93 43 0 c29 0 45 5 49 15 4 12 -4 15 -40 15 -50
0 -50 -1 -28 73 6 18 3 19 -36 8z"/>
<path d="M2510 771 c-16 -5 -21 -9 -13 -14 9 -6 8 -20 -7 -60 -24 -65 -50
-179 -50 -218 0 -19 -5 -29 -15 -29 -19 0 -19 20 0 111 9 40 13 74 11 76 -9 9
-37 -145 -34 -183 3 -35 6 -40 38 -48 40 -10 131 11 138 32 3 9 -8 10 -42 6
-61 -9 -64 2 -36 121 l21 95 44 0 c29 0 45 5 49 15 4 12 -4 15 -40 15 -50 0
-50 -1 -28 73 6 18 3 19 -36 8z"/>
<path d="M950 710 c-7 -13 -21 -20 -40 -20 -37 0 -39 -16 -4 -24 15 -4 27 -6
28 -4 0 2 9 18 19 36 10 17 16 32 13 32 -3 0 -10 -9 -16 -20z"/>
<path d="M732 701 c-7 -4 -47 -6 -90 -4 -71 4 -80 2 -119 -23 -55 -37 -83 -88
-83 -154 0 -62 26 -105 70 -115 23 -5 40 0 75 22 24 15 43 33 43 38 -1 6 6 45
16 87 10 43 16 83 14 90 -2 6 -12 -26 -21 -72 -18 -87 -39 -119 -79 -120 -41
0 -46 115 -7 179 23 38 51 50 103 43 l38 -4 -5 -42 c-14 -95 -39 -186 -53
-186 -19 0 -18 -17 1 -27 21 -12 107 -1 112 14 3 7 -3 9 -16 6 -34 -9 -35 20
-7 148 15 67 26 123 24 124 -2 2 -9 0 -16 -4z m-218 -68 c-32 -47 -38 -72 -31
-136 l4 -51 -18 23 c-35 43 -20 122 33 179 33 34 40 26 12 -15z"/>
<path d="M1295 686 c-69 -30 -122 -126 -109 -195 13 -64 99 -105 174 -82 41
12 89 46 79 55 -3 4 -23 -1 -44 -9 -40 -17 -86 -13 -105 10 -6 7 -14 29 -17
49 l-6 36 40 0 c119 0 209 86 141 134 -27 19 -111 20 -153 2z m-24 -40 c-31
-33 -51 -105 -41 -150 9 -41 8 -42 -14 -20 -34 33 -11 133 39 172 36 29 44 28
16 -2z m109 12 c0 -9 3 -8 10 2 8 13 11 13 25 -1 15 -15 15 -18 -7 -43 -13
-15 -34 -29 -48 -31 -14 -3 -40 -8 -58 -11 l-33 -6 13 28 c6 16 21 39 32 52
21 24 66 30 66 10z"/>
<path d="M2138 693 c-10 -2 -18 -8 -18 -13 0 -11 49 -19 56 -9 2 4 11 6 18 3
11 -4 9 -26 -10 -117 -13 -62 -24 -113 -24 -114 0 -2 -7 -3 -16 -3 -9 0 -14 6
-11 13 11 28 38 178 35 189 -3 7 -15 -39 -27 -102 -21 -105 -22 -115 -6 -126
14 -11 76 -10 113 2 20 6 14 23 -7 17 -32 -8 -34 15 -11 127 13 59 20 115 17
124 -6 16 -65 21 -109 9z"/>
<path d="M2792 679 c-97 -48 -131 -177 -66 -242 45 -45 149 -44 206 2 32 27
20 33 -30 15 -71 -24 -122 4 -122 68 0 25 3 28 36 28 118 0 210 87 142 134
-33 23 -114 20 -166 -5z m-21 -45 c-30 -38 -44 -97 -32 -139 11 -39 9 -42 -13
-19 -19 18 -21 85 -5 117 14 28 61 78 67 72 2 -2 -5 -16 -17 -31z m119 24 c0
-10 3 -9 9 1 11 17 31 6 31 -18 0 -17 -19 -39 -49 -56 -10 -6 -12 -4 -6 6 7
11 6 12 -6 2 -8 -6 -31 -14 -52 -18 l-37 -7 10 28 c6 16 21 39 32 52 23 24 68
30 68 10z"/>
<path d="M2390 681 c0 -5 10 -11 23 -15 33 -9 37 -8 37 9 0 10 -10 15 -30 15
-16 0 -30 -4 -30 -9z"/>
<path d="M700 208 l0 -93 39 -2 c46 -3 74 22 74 67 0 42 -20 62 -60 58 -31 -4
-33 -2 -33 29 0 18 -4 33 -10 33 -6 0 -10 -37 -10 -92z m85 2 c28 -31 10 -75
-30 -75 -27 0 -30 4 -33 35 -3 24 2 38 14 47 24 17 28 17 49 -7z"/>
<path d="M1020 205 c0 -57 4 -95 10 -95 6 0 10 38 10 95 0 57 -4 95 -10 95 -6
0 -10 -38 -10 -95z"/>
<path d="M201 200 c-2 -108 17 -124 21 -17 l3 72 35 -75 36 -74 36 74 36 75 1
-72 c1 -42 5 -73 11 -73 6 0 10 37 10 90 0 113 -14 118 -60 18 l-33 -72 -33
72 c-46 101 -61 96 -63 -18z"/>
<path d="M1455 200 c0 -50 3 -90 8 -90 4 0 7 41 7 90 0 50 -3 90 -7 90 -5 0
-8 -41 -8 -90z"/>
<path d="M1950 260 c0 -11 -7 -20 -15 -20 -8 0 -15 -4 -15 -10 0 -5 7 -10 14
-10 11 0 16 -15 18 -52 3 -46 6 -53 26 -56 12 -2 22 1 22 7 0 6 -7 11 -15 11
-11 0 -15 12 -15 45 0 33 4 45 15 45 8 0 15 5 15 10 0 6 -7 10 -15 10 -8 0
-15 9 -15 20 0 11 -4 20 -10 20 -5 0 -10 -9 -10 -20z"/>
<path d="M2208 275 c-4 -4 -4 -13 -1 -21 3 -8 -1 -14 -11 -14 -9 0 -16 -4 -16
-10 0 -5 7 -10 14 -10 11 0 16 -15 18 -52 3 -46 6 -53 26 -56 27 -4 29 14 2
21 -16 4 -20 14 -20 46 0 34 3 41 20 41 11 0 20 5 20 10 0 6 -9 10 -19 10 -12
0 -21 8 -23 21 -2 11 -6 18 -10 14z"/>
<path d="M2555 263 c-4 -13 -14 -23 -21 -23 -8 0 -14 -4 -14 -10 0 -5 7 -10
14 -10 11 0 16 -15 18 -52 3 -46 6 -53 26 -56 12 -2 22 1 22 7 0 6 -7 11 -15
11 -11 0 -15 12 -15 45 0 33 4 45 15 45 8 0 15 5 15 10 0 6 -6 10 -14 10 -8 0
-17 10 -19 23 l-4 22 -8 -22z"/>
<path d="M496 218 c-22 -31 -20 -64 4 -88 27 -27 62 -25 88 3 42 44 16 107
-43 107 -24 0 -39 -7 -49 -22z m72 -4 c39 -27 23 -84 -23 -84 -43 0 -61 53
-29 84 19 20 24 20 52 0z"/>
<path d="M900 175 c0 -37 4 -65 10 -65 6 0 10 28 10 65 0 37 -4 65 -10 65 -6
0 -10 -28 -10 -65z"/>
<path d="M1146 224 c-35 -34 -9 -114 36 -114 23 0 48 11 48 21 0 4 -7 6 -15 3
-23 -9 -65 5 -65 21 0 11 12 15 45 15 48 0 56 11 35 51 -13 23 -62 26 -84 3z
m62 -6 c20 -20 14 -28 -23 -28 -19 0 -35 4 -35 8 0 12 22 32 35 32 6 0 16 -5
23 -12z"/>
<path d="M1573 173 c-1 -35 2 -63 7 -63 6 0 10 20 10 44 0 48 22 81 47 72 8
-3 17 -6 19 -6 2 0 4 -25 4 -55 0 -32 4 -55 10 -55 7 0 10 24 8 63 l-3 62 -50
1 -50 1 -2 -64z"/>
<path d="M1774 225 c-9 -23 3 -44 31 -55 37 -14 33 -44 -5 -38 -20 3 -30 0
-30 -9 0 -16 52 -17 68 -1 22 22 14 49 -18 61 -39 15 -36 43 3 39 15 -1 27 2
27 8 0 16 -70 12 -76 -5z"/>
<path d="M2080 175 c0 -37 4 -65 10 -65 6 0 10 28 10 65 0 37 -4 65 -10 65 -6
0 -10 -28 -10 -65z"/>
<path d="M2340 186 c0 -66 17 -85 61 -69 18 7 29 8 29 2 0 -6 3 -8 8 -5 11 7
15 126 3 126 -5 0 -11 -21 -13 -46 -3 -50 -22 -72 -52 -61 -12 5 -16 19 -16
57 0 27 -4 50 -10 50 -5 0 -10 -24 -10 -54z"/>
<path d="M2686 218 c-42 -59 11 -128 78 -102 28 11 17 24 -14 18 -29 -6 -60 8
-60 27 0 5 23 9 51 9 48 0 50 1 43 23 -10 35 -24 47 -55 47 -17 0 -34 -8 -43
-22z m70 -5 c17 -17 17 -18 -4 -21 -12 -2 -32 -2 -44 0 -21 3 -21 4 -4 21 10
9 21 17 26 17 5 0 16 -8 26 -17z"/>
</g>
</svg>
